<?xml version="1.0" standalone="no"?>
<!DOCTYPE svg PUBLIC "-//W3C//DTD SVG 1.1//EN" "http://www.w3.org/Graphics/SVG/1.1/DTD/svg11.dtd"><svg class="icon"
  width="200px" height="200.00px" viewBox="0 0 1024 1024" version="1.1" xmlns="http://www.w3.org/2000/svg">
  <path
    d="M937.839 947.593c-145.047-21.676-212.062-77.13-212.062-167.265 0-79.658 28.72-125.9 105.49-192.192 3.612-3.251 48.408-40.823 62.136-52.925a726.025 726.025 0 0 0 48.229-46.06c102.237-108.019 99.167-259.568 11.741-348.078-44.797-45.519-110.908-69.001-177.2-60.511l-40.28-40.281c-21.857-21.857-55.996-22.398-76.588-1.806L80.381 617.398c-10.115 10.116-21.495 30.166-25.108 44.436L6.683 852.4c-7.225 28.36 9.935 45.339 38.475 37.571l186.773-50.938c14.45-3.974 34.14-15.353 44.435-25.65L855.29 234.46c20.592-20.592 19.87-54.912-1.806-76.588l-20.773-20.773c30.888 5.78 59.247 20.773 81.284 42.99 66.473 67.557 68.821 184.967-12.644 271.128-14.27 14.812-29.081 29.082-44.616 42.63-13.186 11.56-57.44 48.95-61.595 52.563-87.968 75.685-124.816 135.113-124.816 234.099 0 122.468 90.135 196.707 259.386 222.176 9.754 1.446 19.69-2.348 25.83-10.115 6.142-7.767 7.768-18.244 4.155-27.456-3.793-9.393-12.102-16.076-21.856-17.521z m-201.946-672.13L618.302 157.872l39.197-39.197 117.59 117.591-39.196 39.197z" />
</svg>