<?xml version="1.0" standalone="no"?>
<!DOCTYPE svg PUBLIC "-//W3C//DTD SVG 1.1//EN" "http://www.w3.org/Graphics/SVG/1.1/DTD/svg11.dtd"><svg class="icon"
  width="200px" height="200.00px" viewBox="0 0 1024 1024" version="1.1" xmlns="http://www.w3.org/2000/svg">
  <path
    d="M873.344 247.296a38.4 38.4 0 0 1 37.888 32.192l0.512 6.208v452.608a38.4 38.4 0 0 1-76.288 6.208l-0.512-6.208V285.696a38.4 38.4 0 0 1 38.4-38.4zM479.36 258.56a38.4 38.4 0 0 1 54.272 0l226.304 226.304 4.032 4.736a38.4 38.4 0 0 1-4.032 49.536L533.632 765.44l-4.736 4.032a38.4 38.4 0 0 1-49.536-4.032l-4.032-4.8a38.4 38.4 0 0 1 4.032-49.536L640.128 550.4 256.96 550.4l-6.272-0.512A38.4 38.4 0 0 1 256.96 473.6h383.168L479.36 312.832l-4.032-4.8a38.4 38.4 0 0 1 4.032-49.536z" />
</svg>