<?xml version="1.0" standalone="no"?>
<!DOCTYPE svg PUBLIC "-//W3C//DTD SVG 1.1//EN" "http://www.w3.org/Graphics/SVG/1.1/DTD/svg11.dtd"><svg class="icon"
  width="200px" height="200.00px" viewBox="0 0 1024 1024" version="1.1" xmlns="http://www.w3.org/2000/svg">
  <path
    d="M512 962C263.9 962 62 760.1 62 512S263.9 62 512 62s450 201.9 450 450-201.9 450-450 450z m0-835.7c-212.7 0-385.7 173-385.7 385.7s173 385.7 385.7 385.7 385.7-173 385.7-385.7-173-385.7-385.7-385.7zM807.5 839.6c-8.2 0-16.4-3.1-22.7-9.4l-591-590.9c-12.6-12.6-12.6-32.9 0-45.5s32.9-12.6 45.5 0l590.9 590.9c12.6 12.6 12.6 32.9 0 45.5-6.3 6.2-14.5 9.4-22.7 9.4z" />
</svg>