<svg t="1695782065141" class="icon" viewBox="0 0 1024 1024" version="1.1" xmlns="http://www.w3.org/2000/svg"
  p-id="14558" width="200" height="200">
  <path
    d="M514.176 579.008 139.584 263.36C-27.072 462.592 5.952 745.984 204.8 913.28c199.168 167.552 496.512 142.016 664.128-57.088 94.656-112.448 127.488-236.672 102.464-370.688L514.176 579.008z"
    p-id="14559"></path>
  <path
    d="M808.704 116.672c-2.24-1.984-4.416-3.968-6.72-5.952C602.816-56.896 305.536-31.296 137.92 167.936 137.6 168.256 137.344 168.576 137.088 168.896l367.488 309.248L808.704 116.672z"
    p-id="14560"></path>
  <path d="M868.352 178.432 545.472 511.808l445.184-135.104C971.328 286.848 924.992 223.872 868.352 178.432z"
    p-id="14561"></path>
</svg>