<?xml version="1.0" standalone="no"?><!DOCTYPE svg PUBLIC "-//W3C//DTD SVG 1.1//EN" "http://www.w3.org/Graphics/SVG/1.1/DTD/svg11.dtd"><svg t="1692763768699" class="icon" viewBox="0 0 1024 1024" version="1.1" xmlns="http://www.w3.org/2000/svg" p-id="9773" xmlns:xlink="http://www.w3.org/1999/xlink" width="200" height="200"><path d="M213.869714 140.873143h214.601143c32.329143 0 58.514286 26.185143 58.514286 58.514286v224.256c0 32.329143-26.185143 58.514286-58.514286 58.514285H213.869714c-32.329143 0-58.514286-26.185143-58.514285-58.514285V199.387429c0-32.329143 26.185143-58.514286 58.514285-58.514286zM213.869714 546.669714h214.601143c32.329143 0 58.514286 26.185143 58.514286 58.514286v224.256c0 32.329143-26.185143 58.514286-58.514286 58.514286H213.869714c-32.329143 0-58.514286-26.185143-58.514285-58.514286V605.184c0-32.329143 26.185143-58.514286 58.514285-58.514286zM610.450286 632.393143H825.051429c32.329143 0 58.514286 26.185143 58.514285 58.514286v138.532571c0 32.329143-26.185143 58.514286-58.514285 58.514286H610.450286c-32.329143 0-58.514286-26.185143-58.514286-58.514286v-138.532571c0-32.329143 26.185143-58.514286 58.514286-58.514286zM610.450286 140.873143H825.051429c32.329143 0 58.514286 26.185143 58.514285 58.514286v315.830857c0 32.329143-26.185143 58.514286-58.514285 58.514285H610.450286c-32.329143 0-58.514286-26.185143-58.514286-58.514285V199.387429c0-32.329143 26.185143-58.514286 58.514286-58.514286z" p-id="9774"></path></svg>