<?xml version="1.0" standalone="no"?>
<!DOCTYPE svg PUBLIC "-//W3C//DTD SVG 1.1//EN" "http://www.w3.org/Graphics/SVG/1.1/DTD/svg11.dtd"><svg t="1692764806367"
  class="icon" viewBox="0 0 1024 1024" version="1.1" xmlns="http://www.w3.org/2000/svg" p-id="11913"
  xmlns:xlink="http://www.w3.org/1999/xlink" width="200" height="200">
  <path
    d="M979.5 440.7c24-23.4 10.7-64.1-22.4-68.9l-261.5-38c-13.1-1.9-24.5-10.2-30.4-22.1l-117-237c-14.8-30-57.6-30-72.4 0l-117 237c-5.9 11.9-17.2 20.2-30.4 22.1l-261.5 38c-33.1 4.8-46.3 45.5-22.4 68.9l189.3 184.5c9.5 9.3 13.9 22.6 11.6 35.7l-44.7 260.5c-5.7 33 29 58.1 58.6 42.6l233.9-123c11.5-6 25.2-6.2 36.7-0.4l229.6 122.6c2.1 1.4 4.4 2.5 6.8 3.5 19.2 8.6 41.9 1.2 52.3-17.3 0.8-1.3 1.5-2.7 2.2-4.1 4.8-10 5.2-21 1.9-30.8l-44.4-264.8c1-9.2 5.2-17.8 11.9-24.4l189.3-184.6z"
    p-id="11914"></path>
</svg>