<svg t="1697529028758" class="icon" viewBox="0 0 1024 1024" version="1.1" xmlns="http://www.w3.org/2000/svg" p-id="4029"
  width="200" height="200">
  <path
    d="M306.7277 0.001575H38.597651A38.596864 38.596864 0 0 0 0.000788 38.598439v270.571892c0 10.555061 8.664602 19.298432 19.298432 19.298431h57.974064c10.63383 0 19.298432-8.664602 19.298432-19.298431V96.572504h210.155984c10.63383 0 19.298432-8.664602 19.298432-19.298432V19.300007A19.377201 19.377201 0 0 0 306.7277 0.001575z m697.894311 695.531238h-57.895295a19.377201 19.377201 0 0 0-19.298432 19.298432v212.597827H717.2723a19.377201 19.377201 0 0 0-19.298432 19.298431v57.974065c0 10.63383 8.664602 19.298432 19.298432 19.298432h268.05128a38.596864 38.596864 0 0 0 38.675632-38.596864V714.752476a19.377201 19.377201 0 0 0-19.298432-19.298432z m-697.894311 231.896259H96.571716V714.831245a19.377201 19.377201 0 0 0-19.298432-19.298432H19.29922A19.377201 19.377201 0 0 0 0.000788 714.831245v270.493122c0 21.425198 17.329204 38.675633 38.596863 38.675633h268.130049c10.63383 0 19.298432-8.664602 19.298432-19.298432v-57.974065a19.377201 19.377201 0 0 0-19.298432-19.298431zM985.32358 0.001575H717.2723a19.377201 19.377201 0 0 0-19.298432 19.298432v57.974065c0 10.63383 8.664602 19.298432 19.298432 19.298432h210.155984v212.597827c0 10.555061 8.664602 19.298432 19.298432 19.298431h57.974064c10.63383 0 19.298432-8.664602 19.298432-19.298431V38.598439A38.596864 38.596864 0 0 0 985.402349 0.001575z"
    p-id="4030"></path>
</svg>