<?xml version="1.0" standalone="no"?>
<!DOCTYPE svg PUBLIC "-//W3C//DTD SVG 1.1//EN" "http://www.w3.org/Graphics/SVG/1.1/DTD/svg11.dtd"><svg class="icon"
  width="200px" height="200.00px" viewBox="0 0 1024 1024" version="1.1" xmlns="http://www.w3.org/2000/svg">
  <path
    d="M282.28495 641.025067a136.616976 136.616976 0 0 0 40.319993-17.878997 88.385984 88.385984 0 0 0 19.056997-15.256997v-2.616999a62.775989 62.775989 0 0 1-4.433999-20.059997 42.945992 42.945992 0 0 1 0-10.904998l-17.719997-16.127997a117.723979 117.723979 0 0 1-28.805995-40.119993c-4.432999-10.465998-8.856998-20.499996-12.409998-31.400995v-7.849998a151.643973 151.643973 0 0 1-22.594996-24.851996 143.589975 143.589975 0 0 1-21.267996-46.662992 152.938973 152.938973 0 0 1-7.531999-64.101988 165.846971 165.846971 0 0 1 8.857999-37.939994 129.739977 129.739977 0 0 1 7.535998-17.877997 543.417904 543.417904 0 0 1 4.874999-69.334987 513.58591 513.58591 0 0 1 13.290998-70.645988H252.599956a180.632968 180.632968 0 0 0-33.239995 3.486999 150.015974 150.015974 0 0 0-33.667994 10.034999 183.089968 183.089968 0 0 0-33.233994 20.494996 131.403977 131.403977 0 0 0-29.685995 33.136994 176.510969 176.510969 0 0 0-21.718996 48.409992 334.897941 334.897941 0 0 0-10.188998 51.019991 404.811929 404.811929 0 0 0-2.657 56.68299 63.482989 63.482989 0 0 0-12.405997 33.146994 65.749988 65.749988 0 0 0 0 22.670996 68.477988 68.477988 0 0 0 8.857998 19.194997 79.436986 79.436986 0 0 0 8.867999 10.464998 37.529993 37.529993 0 0 0 10.188998 5.222999l6.644999 22.680996c2.663 6.538999 4.873999 12.646998 7.976998 19.184997a43.570992 43.570992 0 0 0 9.748998 14.391997 230.552959 230.552959 0 0 1 21.262997 20.059996 39.295993 39.295993 0 0 1 10.633998 27.473996v20.489996a53.687991 53.687991 0 0 1-3.097 18.754997 57.78399 57.78399 0 0 1-11.079998 17.878997 106.838981 106.838981 0 0 1-23.039996 18.749996 159.870972 159.870972 0 0 1-44.307992 19.188997c-11.519998 3.050999-51.399991 17.443997-78.427986 27.038995V872.140027h3.982999c0-10.899998 2.662-23.105996 4.879999-39.239993v-4.362c4.212999-37.369993 22.373996-71.863987 50.952991-96.812983a242.389957 242.389957 0 0 1 78.427987-40.549992h5.759999c79.759986-30.960995 122.741978-45.352992 138.249975-50.149992z m710.719875 19.189997h-13.290997a474.570917 474.570917 0 0 1 44.312992 17.443997v190.124966h-2.662a78.969986 78.969986 0 0 0-2.656999-21.805996 257.944955 257.944955 0 0 0-9.748998-51.889991 158.929972 158.929972 0 0 0-46.964992-71.516987 239.701958 239.701958 0 0 0-61.147989-35.316994l-25.256996-10.905998-44.313992-20.059996a320.279944 320.279944 0 0 0-44.302992-16.997997 292.483949 292.483949 0 0 1-44.312993-14.832998 101.114982 101.114982 0 0 1-23.925995-13.951997 53.400991 53.400991 0 0 0 5.759999-24.421996v-19.189997a131.060977 131.060977 0 0 0 41.205992-53.19699 711.508875 711.508875 0 0 0 13.295998-31.399995v-2.611999l3.098-9.594999a127.609978 127.609978 0 0 0 34.124994-43.611992 189.054967 189.054967 0 0 0 14.616997-53.630991 161.913972 161.913972 0 0 0 0-48.839991 141.065975 141.065975 0 0 0-15.948997-43.611992 549.291903 549.291903 0 0 0-5.319999-66.282989 435.719923 435.719923 0 0 0-13.735998-65.842988h17.724997a144.132975 144.132975 0 0 1 38.553993 5.231999 192.162966 192.162966 0 0 1 63.359989 31.830994 100.197982 100.197982 0 0 1 20.376996 20.495997 186.659967 186.659967 0 0 1 28.804995 51.895991 374.715934 374.715934 0 0 1 11.959998 53.63699 381.002933 381.002933 0 0 1 3.554 59.29999 17.033997 17.033997 0 0 1 6.639999 9.163998 78.032986 78.032986 0 0 1 4.873999 13.081998 76.011987 76.011987 0 0 1 0 20.054996 77.618986 77.618986 0 0 1-6.644999 24.856996 57.84599 57.84599 0 0 1-9.748998 14.827997 38.706993 38.706993 0 0 1-13.731998 7.848999c-1.776 7.848999-6.209999 15.696997-6.209999 23.110996a140.377975 140.377975 0 0 1-7.971999 18.749997 43.626992 43.626992 0 0 1-10.188998 14.831997l-11.519998 10.024998a46.954992 46.954992 0 0 0-10.187998 8.283999 38.670993 38.670993 0 0 0-7.096999 10.905998 89.752984 89.752984 0 0 0-5.313999 37.503993 70.107988 70.107988 0 0 0 5.313999 23.105996 66.405988 66.405988 0 0 0 16.393997 21.810996 112.55298 112.55298 0 0 0 30.131995 18.744997 389.729931 389.729931 0 0 0 38.102993 12.645998zM944.709834 777.519043c13.664998 11.590998 23.786996 26.689995 28.363995 41.859993a191.973966 191.973966 0 0 1 7.091999 39.245993c2.211 15.702997 2.211 3.050999 2.210999 18.748997a310.056945 310.056945 0 0 1-3.101999 45.792992 96.613983 96.613983 0 0 1-9.748998 32.700994 67.609988 67.609988 0 0 1-27.473996 14.827997 1355.586762 1355.586762 0 0 1-393.019931 53.201991 2051.054639 2051.054639 0 0 1-403.663929-40.990993 195.756966 195.756966 0 0 1-50.073991-17.002997 82.815985 82.815985 0 0 1-15.502997-49.714991 226.65696 226.65696 0 0 1 3.982999-78.494986 94.514983 94.514983 0 0 1 28.804995-57.12399 174.852969 174.852969 0 0 1 54.501991-30.089995c20.822996-7.848999 117.421979-43.170992 140.016975-49.274991a185.752967 185.752967 0 0 0 58.04499-26.597996 144.689975 144.689975 0 0 0 31.016994-25.292995 87.039985 87.039985 0 0 0 15.512998-24.421996 85.985985 85.985985 0 0 0 4.423999-25.727995V570.39008a57.49699 57.49699 0 0 0-15.062997-37.509994 372.734934 372.734934 0 0 0-29.244995-27.472995 59.63799 59.63799 0 0 1-13.731998-20.054996 445.054922 445.054922 0 0 1-10.193998-25.727996l-9.748998-31.835994a40.959993 40.959993 0 0 1-13.735998-6.977999 115.58398 115.58398 0 0 1-12.405998-14.387997 80.029986 80.029986 0 0 1-11.519998-26.597996 78.258986 78.258986 0 0 1-3.547999-30.965994 110.539981 110.539981 0 0 1 7.095999-22.235996 76.661987 76.661987 0 0 1 11.519998-21.364997 515.121909 515.121909 0 0 1 15.062997-146.959974 227.88996 227.88996 0 0 1 29.239995-66.282988c22.609996-32.849994 54.49699-58.46999 91.719984-73.696987a196.914965 196.914965 0 0 1 44.312992-13.951998A274.195952 274.195952 0 0 1 540.162905 0.00318a197.627965 197.627965 0 0 1 53.170991 6.973999 317.776944 317.776944 0 0 1 47.856991 17.878997 205.080964 205.080964 0 0 1 38.993993 25.291995 141.992975 141.992975 0 0 1 28.359995 27.903995 234.019959 234.019959 0 0 1 35.889994 71.956988A387.188932 387.188932 0 0 1 761.269866 223.700141a500.170912 500.170912 0 0 1 4.873999 81.551985 24.022996 24.022996 0 0 1 9.307999 12.639998 74.754987 74.754987 0 0 1 6.199999 18.314997 81.408986 81.408986 0 0 1 0 27.473995 111.17498 111.17498 0 0 1-8.856999 34.011994 72.012987 72.012987 0 0 1-14.181997 20.059997 44.199992 44.199992 0 0 1-15.508998 11.335998c-2.657 10.469998-4.873999 22.680996-8.416998 31.399994-3.547999 8.719998-7.090999 17.443997-11.079998 26.163995a71.116987 71.116987 0 0 1-14.181998 19.619997 124.543978 124.543978 0 0 1-16.393997 13.961998 84.908985 84.908985 0 0 0-13.291997 11.334998 48.280992 48.280992 0 0 0-9.742999 14.827997 122.402978 122.402978 0 0 0-8.421998 52.325991 86.092985 86.092985 0 0 0 7.530998 31.395994 87.295985 87.295985 0 0 0 22.153996 30.089995 144.619975 144.619975 0 0 0 41.215993 25.727995 468.483918 468.483918 0 0 0 52.719991 17.878997c19.051997 3.050999 95.267983 39.679993 112.54798 46.657992a208.116963 208.116963 0 0 1 46.965992 27.038995z m-346.939939 141.285975l0.445 0.87a26.009995 26.009995 0 0 0 7.090999-14.386997 140.527975 140.527975 0 0 0-2.662-21.365996c-1.772-10.469998-6.645999-21.805996-6.645999-33.581994l-7.976998-36.197994c-2.217-12.205998-6.645999-21.365996-6.645999-29.214995a120.349979 120.349979 0 0 0 18.165997-18.308997 37.539993 37.539993 0 0 0 6.645998-20.059996 27.596995 27.596995 0 0 0-5.314999-16.572997 50.702991 50.702991 0 0 0-11.964998-14.827998l-16.394997-14.821997h-47.849991a136.369976 136.369976 0 0 0-16.394997 14.821997 68.279988 68.279988 0 0 0-10.633998 13.951998 34.021994 34.021994 0 0 0-4.875 16.578997 27.953995 27.953995 0 0 0 5.314999 16.127997 104.293982 104.293982 0 0 0 17.279997 19.624997c-2.662 8.719998-3.982999 14.826997-7.536998 26.597995a482.711915 482.711915 0 0 0-9.302999 36.197994c-2.657 12.205998-7.530999 24.422996-7.530998 35.317993a139.396975 139.396975 0 0 0-3.103 25.292996 25.123996 25.123996 0 0 0 7.090999 13.956997 141.269975 141.269975 0 0 0 17.279997 18.749997 174.212969 174.212969 0 0 0 19.936996 15.696997 34.405994 34.405994 0 0 0 14.182998 6.102999 29.014995 29.014995 0 0 0 15.062997-6.532998 132.479977 132.479977 0 0 0 19.496997-15.702998 158.626972 158.626972 0 0 0 16.843997-18.313997z" />
</svg>