<?xml version="1.0" standalone="no"?><!DOCTYPE svg PUBLIC "-//W3C//DTD SVG 1.1//EN" "http://www.w3.org/Graphics/SVG/1.1/DTD/svg11.dtd"><svg t="1686122265315" class="icon" viewBox="0 0 1024 1024" version="1.1" xmlns="http://www.w3.org/2000/svg" p-id="15486" xmlns:xlink="http://www.w3.org/1999/xlink" width="200" height="200"><path d="M362.723556 12.458667v85.333333h-85.333334v-85.333333zM8.931556 97.792h622.193777v85.333333H8.931556z" fill="#666666" p-id="15487"></path><path d="M491.861333 139.491556l79.815111 30.037333c-88.632889 235.576889-236.771556 427.235556-443.619555 574.065778l-23.210667 16.156444L56.888889 689.152c196.949333-133.859556 338.432-308.394667 425.187555-524.515556l9.784889-25.144888z" fill="#666666" p-id="15488"></path><path d="M229.148444 311.523556c38.855111 109.681778 121.514667 211.968 249.230223 306.631111l19.512889 14.108444-49.436445 69.575111c-145.294222-103.139556-243.313778-217.656889-292.977778-343.779555l-6.769777-18.090667 80.440888-28.444444z" fill="#666666" p-id="15489"></path><path d="M621.681778 709.347556h242.176v85.333333h-242.176z" fill="#666666" p-id="15490"></path><path d="M465.066667 987.079111l212.764444-584.704 80.213333 29.184-212.764444 584.704z" fill="#666666" p-id="15491"></path><path d="M930.133333 1016.263111L717.368889 431.559111l80.213333-29.184 212.764445 584.704z" fill="#666666" p-id="15492"></path><path d="M677.944889 402.375111h119.637333v85.333333h-119.637333z" fill="#666666" p-id="15493"></path></svg>