<svg t="1695781932837" class="icon" viewBox="0 0 1024 1024" version="1.1" xmlns="http://www.w3.org/2000/svg"
  p-id="12107" width="200" height="200">
  <path
    d="M320 149.333333a106.666667 106.666667 0 0 1 106.666667 106.666667v64a106.666667 106.666667 0 0 1-106.666667 106.666667H256a106.666667 106.666667 0 0 1-106.666667-106.666667V256a106.666667 106.666667 0 0 1 106.666667-106.666667h64m0-64H256a170.666667 170.666667 0 0 0-170.666667 170.666667v64a170.666667 170.666667 0 0 0 170.666667 170.666667h64a170.666667 170.666667 0 0 0 170.666667-170.666667V256a170.666667 170.666667 0 0 0-170.666667-170.666667zM320 597.333333a106.666667 106.666667 0 0 1 106.666667 106.666667v64a106.666667 106.666667 0 0 1-106.666667 106.666667H256a106.666667 106.666667 0 0 1-106.666667-106.666667v-64a106.666667 106.666667 0 0 1 106.666667-106.666667h64m0-64H256a170.666667 170.666667 0 0 0-170.666667 170.666667v64a170.666667 170.666667 0 0 0 170.666667 170.666667h64a170.666667 170.666667 0 0 0 170.666667-170.666667v-64a170.666667 170.666667 0 0 0-170.666667-170.666667zM768 597.333333a106.666667 106.666667 0 0 1 106.666667 106.666667v64a106.666667 106.666667 0 0 1-106.666667 106.666667h-64a106.666667 106.666667 0 0 1-106.666667-106.666667v-64a106.666667 106.666667 0 0 1 106.666667-106.666667h64m0-64h-64a170.666667 170.666667 0 0 0-170.666667 170.666667v64a170.666667 170.666667 0 0 0 170.666667 170.666667h64a170.666667 170.666667 0 0 0 170.666667-170.666667v-64a170.666667 170.666667 0 0 0-170.666667-170.666667zM874.666667 117.333333h-277.333334a32 32 0 0 0 0 64h277.333334a32 32 0 0 0 0-64zM874.666667 394.666667h-277.333334a32 32 0 0 0 0 64h277.333334a32 32 0 0 0 0-64zM874.666667 256h-277.333334a32 32 0 0 0 0 64h277.333334a32 32 0 0 0 0-64z"
    p-id="12108"></path>
</svg>