<svg t="1695782012801" class="icon" viewBox="0 0 1024 1024" version="1.1" xmlns="http://www.w3.org/2000/svg"
  p-id="13421" width="200" height="200">
  <path
    d="M932 120H568c-15.46 0-28 12.54-28 28s12.54 28 28 28h364c15.46 0 28-12.54 28-28s-12.54-28-28-28zM400 456H120c-30.93 0-56-25.07-56-56V120c0-30.93 25.07-56 56-56h280c30.93 0 56 25.07 56 56v280c0 30.93-25.07 56-56 56zM400 960H120c-30.93 0-56-25.07-56-56V624c0-30.93 25.07-56 56-56h280c30.93 0 56 25.07 56 56v280c0 30.93-25.07 56-56 56zM932 362.67H568c-15.46 0-28 12.54-28 28s12.54 28 28 28h364c15.46 0 28-12.54 28-28 0-15.47-12.54-28-28-28zM932 605.33H568c-15.46 0-28 12.54-28 28s12.54 28 28 28h364c15.46 0 28-12.54 28-28s-12.54-28-28-28zM932 848H568c-15.46 0-28 12.54-28 28s12.54 28 28 28h364c15.46 0 28-12.54 28-28s-12.54-28-28-28z"
    p-id="13422"></path>
</svg>