<svg t="1695803863159" class="icon" viewBox="0 0 1024 1024" version="1.1" xmlns="http://www.w3.org/2000/svg" p-id="5385"
  width="200" height="200">
  <path
    d="M186.88 244.224v213.504c0 124.928 59.904 242.176 160.768 315.392l164.352 119.808 164.352-119.808c100.864-73.216 160.768-190.464 160.768-315.392V244.224L512 120.832 186.88 244.224z m-65.024-45.056L512 51.2l390.144 147.968v258.048c0 145.408-69.632 282.112-187.392 367.616L512 972.8l-202.752-147.456c-117.76-85.504-187.392-222.208-187.392-368.128V199.168z"
    p-id="5386"></path>
  <path
    d="M512 544.256C440.32 544.256 381.952 486.4 381.952 414.72S440.32 284.672 512 284.672c71.68 0 130.048 58.368 130.048 130.048 0 71.68-58.368 129.536-130.048 129.536z m0-64.512c35.84 0 65.024-29.184 65.024-65.024 0-35.84-29.184-65.024-65.024-65.024-35.84 0-65.024 29.184-65.024 65.024 0 35.84 29.184 64.512 65.024 65.024z"
    p-id="5387"></path>
  <path
    d="M512 512c21.504 0 32.256 10.752 32.256 32.256v166.4c0 21.504-10.752 32.256-32.256 32.256-21.504 0-32.256-10.752-32.256-32.256v-166.4c0-21.504 10.752-32.256 32.256-32.256z"
    p-id="5388"></path>
  <path
    d="M609.28 628.224c0 21.504-10.752 32.256-32.256 32.256h-61.952c-21.504 0-32.256-10.752-32.256-32.256 0-21.504 10.752-32.256 32.256-32.256h61.952c21.504 0 32.256 10.752 32.256 32.256z"
    p-id="5389"></path>
</svg>