<?xml version="1.0" standalone="no"?>
<!DOCTYPE svg PUBLIC "-//W3C//DTD SVG 1.1//EN" "http://www.w3.org/Graphics/SVG/1.1/DTD/svg11.dtd"><svg class="icon"
  width="200px" height="200.00px" viewBox="0 0 1024 1024" version="1.1" xmlns="http://www.w3.org/2000/svg">
  <path
    d="M804 718.1c-7.1-6-16.1-9.4-25.3-9.4-11.6 0-22.4 5.1-29.8 14.1-41.6 50.1-96.8 85-159.8 100.9-7.9 2-16.2 3.8-24.7 5.3-2.1 0.4-4.2 0.6-6.3 0.9l-4.3 0.6c-6.3 0.8-12.7 1.6-19.1 2-3.1 0.2-6.3 0.3-9.4 0.4l-2.7 0.1c-4.2 0.1-8.5 0.2-12.7 0.2-2.2 0-4.3 0-6.6-0.1-2.1-0.1-4.1-0.2-6.2-0.4l-3-0.2c-7-0.5-14.6-1-22.1-2.1-1.4-0.2-2.8-0.4-4.2-0.7l-0.9-0.2c-10.1-1.6-18.3-3.2-25.3-4.9l-1.5-0.3c-28.6-7.2-56-18.4-81.5-33.3-0.5-0.3-1.1-0.7-1.2-0.8-7.7-4.5-15.4-9.5-23.2-15.1-0.9-0.7-4.7-3.5-4.7-3.5-57.1-42.6-97.1-101.5-115.4-170.2l-2.1-7.9 69.5-18.6-150.8-134.4L67 632.2l69.5-18.6 2.1 7.9c20.5 76.8 63.2 144.8 123.7 196.9 0.5 0.5 1 1 1.8 2 4.5 3.8 9.2 7.3 14.1 10.9l4.5 3.4 2.1 1.6c1.6 1.2 3.1 2.5 4.8 3.7 7.8 5.7 16.4 11.3 27.8 18.1l2.7 1.6c31.5 18.5 65.5 32.4 101.4 41.4 0.7 0.2 1.5 0.5 2.4 0.7 9.2 2.2 19.2 4.2 30.7 6 1.3 0.2 2.5 0.4 3.8 0.6 1.3 0.2 2.6 0.5 3.9 0.6 7.6 1 15.7 1.8 26.6 2.5l2.4 0.2c3.4 0.2 6.8 0.5 10.2 0.6 2.7 0.1 5.3 0.1 8 0.1 5.1 0 10.2-0.1 15.3-0.2l4.1-0.1c3.8-0.1 7.7-0.2 11.7-0.5 1 0 2-0.1 2.9-0.1 1.1 0 2.1 0 3.3-0.1 5.5-0.5 10.9-1.2 16.3-2l5.2-0.7 4.5-0.6c1.2-0.1 2.3-0.3 3.3-0.4 14.6-2.4 26.7-4.9 37.9-7.9 76.4-20.4 143.9-63.9 195.1-125.6 13.8-16.8 11.5-42-5.1-56.1zM887.5 410.3l-2.1-7.9c-20.6-76.7-63.1-144.5-123.4-196.5-0.5-0.5-1-1-1.4-1.5-0.3-0.3-0.5-0.6-0.7-0.8-7-5.9-14.2-11.2-22.2-17.1l-1.1-0.9c-0.4-0.3-0.9-0.7-1.4-1.1-50.4-36.4-106.8-59.5-167.8-68.7l-4.9-0.8c-8.3-1.1-17.5-2-28.9-2.7l-3.9-0.3c-2.2-0.2-4.4-0.3-6.6-0.4-3.1-0.1-6.2-0.2-9.3-0.2-5.3 0-10.5 0.1-15.8 0.3l-4.3 0.1c-3.2 0.1-6.4 0.2-9.7 0.4-1.3 0.1-2.5 0.1-3.7 0.1-1 0-2.1 0-3.1 0.1-3.9 0.3-7.8 0.9-11.7 1.5-2.2 0.3-4.4 0.7-6.6 1l-5 0.6c-2.6 0.3-5.2 0.6-7.7 1-8.9 1.5-18.4 3.5-29.9 6.4-1.1 0.3-2.2 0.5-3.4 0.7-0.6 0.1-1.2 0.2-1.8 0.4l-0.7 0.3-0.6 0.2c-76.6 20.5-143.9 63.8-194.9 125.2-13.9 16.7-11.7 41.9 5 56.1 7.1 6 16.1 9.4 25.3 9.4 11.6 0 22.5-5.1 29.9-14.1 41.3-49.7 96-84.5 158.4-100.6 8.9-2.3 17.8-4.2 26.7-5.7 1.8-0.3 8-1 8-1 8.4-1.2 15.4-1.9 21.9-2.3 2.3-0.2 4.5-0.2 6.8-0.3l2.8-0.1c4.6-0.2 9.2-0.3 13.8-0.3 2.6 0 5.2 0 7.9 0.1 1.4 0.1 6.6 0.5 6.6 0.5 8.8 0.5 16.8 1.3 24.7 2.3l2.4 0.4c48.4 7.3 95 26.4 135 55.2l0.7 0.6c58 42.1 100.1 103.4 118.6 172.7l2.1 7.9-69.5 18.6 151 134.3 64-191.7-69.5 18.6z" />
</svg>