<svg t="1695781794254" class="icon" viewBox="0 0 1024 1024" version="1.1" xmlns="http://www.w3.org/2000/svg"
  p-id="10908" width="200" height="200">
  <path
    d="M122.368 165.888h778.24c-9.216 0-16.384-7.168-16.384-16.384v713.728c0-9.216 7.168-16.384 16.384-16.384h-778.24c9.216 0 16.384 7.168 16.384 16.384V150.016c0 8.192-6.656 15.872-16.384 15.872z m-32.768 684.544c0 26.112 20.992 47.104 47.104 47.104h750.08c26.112 0 47.104-20.992 47.104-47.104V162.304c0-26.112-20.992-47.104-47.104-47.104H136.704c-26.112 0-47.104 20.992-47.104 47.104v688.128z"
    p-id="10909"></path>
  <path
    d="M420.352 706.56l96.256-404.48 51.2 15.36-96.256 404.48-51.2-15.36z m226.816-103.936L740.864 496.64l-93.696-105.984 37.376-42.496 131.584 147.968-37.376 42.496-94.208 106.496-37.376-42.496zM207.872 497.152l37.376-42.496 94.208-105.984 37.376 42.496-94.208 105.984 94.208 105.984-37.376 42.496-131.584-148.48z"
    p-id="10910"></path>
</svg>