<svg t="1695803794492" class="icon" viewBox="0 0 1024 1024" version="1.1" xmlns="http://www.w3.org/2000/svg" p-id="4196"
  width="200" height="200">
  <path
    d="M1002.666667 512A490.666667 490.666667 0 1 0 205.866667 896l4.693333 3.413333a487.68 487.68 0 0 0 602.88 0l4.693333-3.413333A490.666667 490.666667 0 0 0 1002.666667 512zM94.933333 512a417.066667 417.066667 0 1 1 725.333334 278.826667 284.16 284.16 0 0 0-178.346667-196.693334 205.44 205.44 0 1 0-265.6 1.706667 284.373333 284.373333 0 0 0-174.293333 194.986667A414.506667 414.506667 0 0 1 94.933333 512z m414.08 58.666667A133.12 133.12 0 1 1 640 437.546667a132.693333 132.693333 0 0 1-130.986667 133.12zM267.52 849.28c8.746667-121.6 106.666667-205.013333 244.48-205.013333s234.666667 83.413333 244.48 205.013333a414.506667 414.506667 0 0 1-488.96 0z"
    p-id="4197"></path>
</svg>