<svg t="1695803971065" class="icon" viewBox="0 0 1024 1024" version="1.1" xmlns="http://www.w3.org/2000/svg" p-id="7742"
  width="200" height="200">
  <path
    d="M536.064 550.912c51.2-37.888 84.48-98.816 84.48-167.424 0-114.688-93.184-207.872-207.872-207.872C297.984 175.616 204.8 268.8 204.8 383.488c0 68.608 33.28 129.536 84.48 167.424-130.048 49.664-222.72 175.616-222.72 323.584h69.12c0-153.088 123.904-276.992 276.992-276.992 153.088 0 276.992 123.904 276.992 276.992h69.12c0.512-147.968-92.16-273.92-222.72-323.584z m-111.616-22.528h-23.552C326.144 522.24 267.264 459.776 267.264 383.488c0-80.384 65.024-145.408 145.408-145.408S558.08 303.104 558.08 383.488c0 76.288-58.88 138.752-133.632 144.896z"
    p-id="7743"></path>
  <path
    d="M734.208 524.8c51.2-37.888 84.48-98.816 84.48-167.424 0-114.688-93.184-207.872-207.872-207.872v62.464c80.384 0 145.408 65.024 145.408 145.408 0 76.288-58.88 139.264-133.632 144.896h-11.776v69.12c153.088 0 276.992 123.904 276.992 276.992H957.44c0-147.968-92.672-273.92-223.232-323.584z"
    p-id="7744"></path>
</svg>