<?xml version="1.0" standalone="no"?>
<!DOCTYPE svg PUBLIC "-//W3C//DTD SVG 1.1//EN" "http://www.w3.org/Graphics/SVG/1.1/DTD/svg11.dtd"><svg class="icon"
  width="200px" height="200.00px" viewBox="0 0 1024 1024" version="1.1" xmlns="http://www.w3.org/2000/svg">
  <path
    d="M36.711 586.194c-0.117-16.64 5.369-27.608 14.813-37.047 28.593-28.577 57.033-57.311 85.564-85.953 137.926-138.46 275.884-276.887 413.759-415.398 13.738-13.801 29.551-19.807 48.586-13.941 31.938 9.843 42.9 49.863 19.904 74.158-21.335 22.539-43.583 44.219-65.49 66.216C408.052 320.614 262.226 466.967 116.459 613.38c-13.04 13.098-28.282 18.354-46.311 13.647-20.119-5.254-33.491-23.138-33.437-40.833zM985.923 444.06c0.142 14.05-5.935 25.187-15.667 34.933-67.215 67.299-134.348 134.682-201.475 202.066-95.812 96.169-191.59 192.373-287.406 288.537-15.439 15.498-34.725 19.391-53.211 10.948-27.225-12.436-35.039-48.664-15.332-71.183 1.615-1.846 3.376-3.565 5.109-5.307C580.391 740.956 743.003 578.02 905.12 414.591c23.433-23.623 58.569-19.813 73.52 4.896 4.338 7.168 6.061 15.92 8.982 23.945-0.565 0.21-1.134 0.418-1.699 0.628zM548.492 432.858c-0.26-13.561 5.31-24.585 14.697-33.991 19.092-19.125 38.148-38.285 57.219-57.429 96.61-96.993 193.262-193.946 289.791-291.021 14.349-14.429 30.772-20.252 50.425-13.55 30.158 10.286 40.389 48.33 19.506 72.351-5.995 6.897-12.676 13.206-19.137 19.692-110.634 111.078-221.325 222.097-331.869 333.267-13.161 13.237-28.185 19.415-46.595 14.788-20.664-5.194-34.046-22.868-34.037-44.107zM36.506 944.054c-0.123-13.775 5.634-24.781 15.242-34.412 72.562-72.727 144.989-145.587 217.487-218.378 43.814-43.991 87.615-87.996 131.558-131.857 18.769-18.732 46.568-18.899 64.757-0.791 17.339 17.265 18.13 44.682 1.803 62.989-1.188 1.333-2.453 2.601-3.713 3.865-115.846 116.298-231.687 232.602-347.555 348.884-18.339 18.402-43.101 20.639-62.266 5.776-11.058-8.576-17.322-21.628-17.313-36.076zM989.262 803.073c-0.959 12.108-4.811 22.682-13.169 31.111-48.894 49.32-97.812 98.617-146.988 147.655-13.526 13.49-30.181 17.171-48.115 10.396-17.925-6.77-27.776-20.615-29.446-39.566-1.215-13.812 3.802-25.839 13.595-35.741a9206.821 9206.821 0 0 1 25.495-25.666c39.87-40.027 79.62-80.175 119.668-120.024 23.707-23.59 62.483-15.984 74.67 14.482 2.189 5.478 2.897 11.552 4.29 17.353zM31.52 223.637c0.42-9.396 4.358-20.099 12.926-28.71 48.675-48.926 97.304-97.896 146.21-146.589 18.843-18.76 46.435-18.493 64.747-0.175 17.907 17.915 17.824 46.354-0.652 64.951-48.482 48.801-97.097 97.472-145.759 146.095-13.374 13.363-32.412 16.917-49.455 9.771-17.197-7.214-28.164-23.911-28.017-45.343z" />
</svg>