<svg t="1695781153454" class="icon" viewBox="0 0 1024 1024" version="1.1" xmlns="http://www.w3.org/2000/svg" p-id="8910"
  width="200" height="200">
  <path
    d="M823.808 0H200.192C90.112 0 0 90.112 0 200.192v623.616C0 933.888 90.112 1024 200.192 1024h623.616c110.08 0 200.192-90.112 200.192-200.192V200.192C1024 90.112 933.888 0 823.808 0z m97.28 921.088c-26.112 26.112-60.416 40.448-97.28 40.448H200.192c-36.352 0-71.168-14.336-97.28-40.448-26.112-26.112-40.448-60.416-40.448-97.28V200.192c0-36.352 14.336-71.168 40.448-97.28 26.112-26.112 60.416-40.448 97.28-40.448h623.616c36.352 0 71.168 14.336 97.28 40.448 26.112 26.112 40.448 60.416 40.448 97.28v623.616c0 36.352-14.336 71.168-40.448 97.28z"
    p-id="8911"></path>
  <path
    d="M229.888 308.224c0-15.36 12.8-28.16 28.16-28.16h219.648v-66.56H258.048c-52.224 0-94.72 42.496-94.72 94.72v400.384c0 52.224 42.496 94.72 94.72 94.72h219.648v-66.56H258.048c-15.36 0-28.16-12.8-28.16-28.16v-166.912h247.808v-66.56H229.888V308.224zM765.952 213.504h-132.096c-52.224 0-94.72 42.496-94.72 94.72v498.688h66.56V308.224c0-15.36 12.8-28.16 28.16-28.16h132.096c15.36 0 28.16 12.8 28.16 28.16v400.384c0 15.36-12.8 28.16-28.16 28.16h-91.648v66.56h91.648c52.224 0 94.72-42.496 94.72-94.72V308.224c0-52.224-42.496-94.72-94.72-94.72z"
    p-id="8912"></path>
</svg>